<svg width="54" height="55" viewBox="0 0 54 55" fill="none" xmlns="http://www.w3.org/2000/svg">
<g clip-path="url(#clip0_327_282)">
<path d="M48.5852 30.2548C47.9573 29.7717 47.2264 29.4399 46.4494 29.2851C45.6723 29.1304 44.87 29.1569 44.1049 29.3626L35.2793 31.3918C35.4846 30.5244 35.491 29.6218 35.2978 28.7516C35.1047 27.8814 34.7171 27.0662 34.1642 26.3671C33.6112 25.668 32.9071 25.1032 32.1048 24.7149C31.3024 24.3266 30.4226 24.1249 29.5312 24.125H18.9717C18.0849 24.1228 17.2065 24.2963 16.3872 24.6356C15.5678 24.9748 14.8239 25.473 14.1982 26.1015L9.4268 30.875H3.375C2.47989 30.875 1.62145 31.2306 0.988515 31.8635C0.355579 32.4965 0 33.3549 0 34.25L0 42.6875C0 43.5826 0.355579 44.4411 0.988515 45.074C1.62145 45.7069 2.47989 46.0625 3.375 46.0625H25.3125C25.4505 46.0626 25.5879 46.0456 25.7217 46.0119L39.2217 42.6369C39.3078 42.6164 39.3918 42.5882 39.4727 42.5525L47.6719 39.0636L47.7647 39.0214C48.5527 38.6277 49.2275 38.0398 49.7255 37.3132C50.2235 36.5865 50.5283 35.7451 50.6112 34.8681C50.6942 33.9911 50.5525 33.1075 50.1995 32.3004C49.8465 31.4933 49.2939 30.7893 48.5937 30.2548H48.5852ZM3.375 34.25H8.4375V42.6875H3.375V34.25ZM46.286 35.9818L38.2704 39.3948L25.1016 42.6875H11.8125V33.2607L16.586 28.4893C16.8983 28.1745 17.27 27.925 17.6796 27.7552C18.0891 27.5853 18.5283 27.4986 18.9717 27.5H29.5312C30.2026 27.5 30.8464 27.7667 31.3211 28.2414C31.7958 28.7161 32.0625 29.3599 32.0625 30.0313C32.0625 30.7026 31.7958 31.3464 31.3211 31.8211C30.8464 32.2958 30.2026 32.5625 29.5312 32.5625H23.625C23.1774 32.5625 22.7482 32.7403 22.4318 33.0568C22.1153 33.3732 21.9375 33.8025 21.9375 34.25C21.9375 34.6976 22.1153 35.1268 22.4318 35.4432C22.7482 35.7597 23.1774 35.9375 23.625 35.9375H30.375C30.502 35.9371 30.6286 35.923 30.7526 35.8953L44.8854 32.6448L44.9508 32.6279C45.3822 32.5081 45.8427 32.5521 46.2436 32.7515C46.6446 32.9508 46.9576 33.2914 47.1225 33.7076C47.2875 34.1239 47.2926 34.5864 47.137 35.0063C46.9814 35.4261 46.6761 35.7736 46.2797 35.9818H46.286ZM34.5937 20.75C35.0107 20.7505 35.4269 20.7166 35.8383 20.6488C36.301 22.0231 37.1475 23.2362 38.2778 24.1447C39.4081 25.0532 40.7749 25.619 42.2166 25.7753C43.6583 25.9316 45.1146 25.6719 46.4134 25.0267C47.7121 24.3816 48.799 23.3781 49.5455 22.1348C50.292 20.8916 50.6669 19.4605 50.6258 18.011C50.5848 16.5614 50.1296 15.1539 49.314 13.9549C48.4983 12.7558 47.3565 11.8154 46.0233 11.2447C44.6902 10.6741 43.2215 10.4971 41.7909 10.7347C41.3454 9.41052 40.5432 8.23493 39.4726 7.33728C38.4021 6.43964 37.1046 5.85474 35.723 5.64696C34.3414 5.43917 32.9293 5.61656 31.6421 6.15959C30.3548 6.70263 29.2423 7.59026 28.427 8.7248C27.6117 9.85935 27.1252 11.1968 27.021 12.59C26.9169 13.9833 27.1991 15.3782 27.8366 16.6214C28.4741 17.8646 29.4422 18.9078 30.6344 19.6362C31.8266 20.3646 33.1966 20.75 34.5937 20.75ZM47.25 18.2188C47.25 19.0531 47.0026 19.8688 46.539 20.5626C46.0754 21.2563 45.4166 21.7971 44.6457 22.1164C43.8748 22.4357 43.0266 22.5192 42.2082 22.3564C41.3899 22.1937 40.6381 21.7919 40.0481 21.2019C39.4581 20.6119 39.0563 19.8601 38.8936 19.0418C38.7308 18.2234 38.8143 17.3752 39.1336 16.6043C39.4529 15.8334 39.9937 15.1746 40.6874 14.711C41.3812 14.2474 42.1969 14 43.0312 14C44.1501 14 45.2232 14.4445 46.0144 15.2356C46.8055 16.0268 47.25 17.0999 47.25 18.2188ZM34.5937 8.9375C35.5141 8.93796 36.409 9.23937 37.1421 9.79576C37.8752 10.3522 38.4063 11.133 38.6543 12.0193C37.79 12.6274 37.0622 13.4092 36.5174 14.3148C35.9725 15.2203 35.6227 16.2295 35.4902 17.278C35.1956 17.3416 34.8951 17.3741 34.5937 17.375C33.4749 17.375 32.4018 16.9305 31.6106 16.1394C30.8195 15.3482 30.375 14.2751 30.375 13.1563C30.375 12.0374 30.8195 10.9643 31.6106 10.1731C32.4018 9.38198 33.4749 8.9375 34.5937 8.9375Z" fill="#0AE360"/>
</g>
<defs>
<clipPath id="clip0_327_282">
<rect width="54" height="54" fill="white" transform="translate(0 0.5)"/>
</clipPath>
</defs>
</svg>
