<svg width="54" height="55" viewBox="0 0 54 55" fill="none" xmlns="http://www.w3.org/2000/svg">
<path d="M50.625 29.1875V42.6875C50.625 43.135 50.4472 43.5643 50.1307 43.8807C49.8142 44.1972 49.385 44.375 48.9375 44.375H35.4375C34.9899 44.375 34.5607 44.1972 34.2442 43.8807C33.9278 43.5643 33.75 43.135 33.75 42.6875C33.75 42.2399 33.9278 41.8107 34.2442 41.4942C34.5607 41.1778 34.9899 41 35.4375 41H44.8643L28.6875 24.8232L21.4439 32.0689C21.2871 32.2258 21.101 32.3503 20.8962 32.4352C20.6913 32.5201 20.4717 32.5638 20.25 32.5638C20.0282 32.5638 19.8086 32.5201 19.6037 32.4352C19.3989 32.3503 19.2128 32.2258 19.0561 32.0689L3.86856 16.8814C3.55191 16.5648 3.37402 16.1353 3.37402 15.6875C3.37402 15.2397 3.55191 14.8102 3.86856 14.4936C4.1852 14.1769 4.61466 13.9991 5.06246 13.9991C5.51026 13.9991 5.93972 14.1769 6.25637 14.4936L20.25 28.4893L27.4936 21.2436C27.6503 21.0867 27.8364 20.9622 28.0412 20.8773C28.2461 20.7924 28.4657 20.7487 28.6875 20.7487C28.9092 20.7487 29.1288 20.7924 29.3337 20.8773C29.5385 20.9622 29.7246 21.0867 29.8814 21.2436L47.25 38.6143V29.1875C47.25 28.7399 47.4278 28.3107 47.7442 27.9942C48.0607 27.6778 48.4899 27.5 48.9375 27.5C49.385 27.5 49.8142 27.6778 50.1307 27.9942C50.4472 28.3107 50.625 28.7399 50.625 29.1875Z" fill="#EB5B64"/>
</svg>
