<svg width="33" height="32" viewBox="0 0 33 32" fill="none" xmlns="http://www.w3.org/2000/svg">
<path d="M9.3999 13C9.3999 12.7348 9.50526 12.4804 9.6928 12.2929C9.88033 12.1054 10.1347 12 10.3999 12H22.3999C22.6651 12 22.9195 12.1054 23.107 12.2929C23.2945 12.4804 23.3999 12.7348 23.3999 13C23.3999 13.2652 23.2945 13.5196 23.107 13.7071C22.9195 13.8946 22.6651 14 22.3999 14H10.3999C10.1347 14 9.88033 13.8946 9.6928 13.7071C9.50526 13.5196 9.3999 13.2652 9.3999 13ZM10.3999 18H22.3999C22.6651 18 22.9195 17.8946 23.107 17.7071C23.2945 17.5196 23.3999 17.2652 23.3999 17C23.3999 16.7348 23.2945 16.4804 23.107 16.2929C22.9195 16.1054 22.6651 16 22.3999 16H10.3999C10.1347 16 9.88033 16.1054 9.6928 16.2929C9.50526 16.4804 9.3999 16.7348 9.3999 17C9.3999 17.2652 9.50526 17.5196 9.6928 17.7071C9.88033 17.8946 10.1347 18 10.3999 18ZM29.3999 7V26C29.3998 26.1704 29.3562 26.338 29.2731 26.4869C29.19 26.6357 29.0703 26.7608 28.9253 26.8503C28.7802 26.9399 28.6147 26.9909 28.4445 26.9985C28.2742 27.0061 28.1048 26.97 27.9524 26.8937L24.3999 25.1175L20.8474 26.8937C20.7085 26.9633 20.5553 26.9995 20.3999 26.9995C20.2445 26.9995 20.0913 26.9633 19.9524 26.8937L16.3999 25.1175L12.8474 26.8937C12.7085 26.9633 12.5553 26.9995 12.3999 26.9995C12.2445 26.9995 12.0913 26.9633 11.9524 26.8937L8.3999 25.1175L4.8474 26.8937C4.69498 26.97 4.5256 27.0061 4.35533 26.9985C4.18506 26.9909 4.01956 26.9399 3.87453 26.8503C3.72951 26.7608 3.60978 26.6357 3.52671 26.4869C3.44365 26.338 3.39999 26.1704 3.3999 26V7C3.3999 6.46957 3.61062 5.96086 3.98569 5.58579C4.36076 5.21071 4.86947 5 5.3999 5H27.3999C27.9303 5 28.439 5.21071 28.8141 5.58579C29.1892 5.96086 29.3999 6.46957 29.3999 7ZM27.3999 7H5.3999V24.3825L7.9524 23.105C8.09133 23.0355 8.24455 22.9993 8.3999 22.9993C8.55526 22.9993 8.70847 23.0355 8.8474 23.105L12.3999 24.8825L15.9524 23.105C16.0913 23.0355 16.2445 22.9993 16.3999 22.9993C16.5553 22.9993 16.7085 23.0355 16.8474 23.105L20.3999 24.8825L23.9524 23.105C24.0913 23.0355 24.2445 22.9993 24.3999 22.9993C24.5553 22.9993 24.7085 23.0355 24.8474 23.105L27.3999 24.3825V7Z" fill="white" fill-opacity="0.25"/>
</svg>
