<svg width="54" height="55" viewBox="0 0 54 55" fill="none" xmlns="http://www.w3.org/2000/svg">
<path d="M50.2509 27.6875V14.1875C50.2509 13.74 50.0732 13.3107 49.7567 12.9943C49.4402 12.6778 49.011 12.5 48.5634 12.5H35.0634C34.6159 12.5 34.1867 12.6778 33.8702 12.9943C33.5537 13.3107 33.3759 13.74 33.3759 14.1875C33.3759 14.6351 33.5537 15.0643 33.8702 15.3808C34.1867 15.6972 34.6159 15.875 35.0634 15.875H44.4902L28.3134 32.0518L21.0698 24.8061C20.9131 24.6492 20.727 24.5247 20.5221 24.4398C20.3173 24.3549 20.0977 24.3112 19.8759 24.3112C19.6542 24.3112 19.4346 24.3549 19.2297 24.4398C19.0249 24.5247 18.8388 24.6492 18.682 24.8061L3.49453 39.9936C3.17789 40.3102 3 40.7397 3 41.1875C3 41.6353 3.17789 42.0648 3.49453 42.3814C3.81118 42.6981 4.24064 42.8759 4.68844 42.8759C5.13624 42.8759 5.5657 42.6981 5.88234 42.3814L19.8759 28.3857L27.1195 35.6314C27.2763 35.7883 27.4624 35.9128 27.6672 35.9977C27.8721 36.0826 28.0917 36.1263 28.3134 36.1263C28.5352 36.1263 28.7548 36.0826 28.9596 35.9977C29.1645 35.9128 29.3506 35.7883 29.5073 35.6314L46.8759 18.2607V27.6875C46.8759 28.1351 47.0537 28.5643 47.3702 28.8808C47.6867 29.1972 48.1159 29.375 48.5634 29.375C49.011 29.375 49.4402 29.1972 49.7567 28.8808C50.0732 28.5643 50.2509 28.1351 50.2509 27.6875Z" fill="#0AE360"/>
</svg>
